<?xml version="1.0" encoding="utf-8"?>
<!-- Generator: Adobe Illustrator 16.0.0, SVG Export Plug-In . SVG Version: 6.00 Build 0)  -->
<!DOCTYPE svg PUBLIC "-//W3C//DTD SVG 1.1//EN" "http://www.w3.org/Graphics/SVG/1.1/DTD/svg11.dtd">
<svg version="1.1" id="Layer_1" xmlns="http://www.w3.org/2000/svg" xmlns:xlink="http://www.w3.org/1999/xlink" x="0px" y="0px"
	 width="207.585px" height="209.817px" viewBox="-83.792 -85.225 207.585 209.817"
	 enable-background="new -83.792 -85.225 207.585 209.817" xml:space="preserve">
<g>
	<polygon fill="none" stroke="#4178BE" stroke-width="3.7926" stroke-miterlimit="10" points="70,70.406 -30,70.406 -30,0.308 
		20,-30.381 70,0.308 	"/>
	<line fill="none" stroke="#4178BE" stroke-width="3.7926" stroke-miterlimit="10" x1="-30" y1="70.406" x2="-0.228" y2="49.202"/>
	<line fill="none" stroke="#4178BE" stroke-width="3.7926" stroke-miterlimit="10" x1="70" y1="70.406" x2="40.1" y2="49.202"/>
	
		<rect x="-0.228" y="6.28" fill="none" stroke="#4178BE" stroke-width="3.7926" stroke-miterlimit="10" width="40.327" height="42.792"/>
	<circle fill="none" stroke="#4178BE" stroke-width="3.7926" stroke-miterlimit="10" cx="7.674" cy="13.645" r="1.991"/>
	<circle fill="none" stroke="#4178BE" stroke-width="3.7926" stroke-miterlimit="10" cx="7.674" cy="27.741" r="1.991"/>
	<path fill="none" stroke="#4178BE" stroke-width="3.7926" stroke-miterlimit="10" d="M7.674,40.099c1.1,0,1.991,0.889,1.991,1.992
		c0,1.097-0.891,1.989-1.991,1.989c-1.1,0-1.991-0.893-1.991-1.989C5.683,40.987,6.574,40.099,7.674,40.099z"/>
	
		<line fill="none" stroke="#4178BE" stroke-width="3.7926" stroke-miterlimit="10" x1="-0.67" y1="20.628" x2="40.448" y2="20.628"/>
	
		<line fill="none" stroke="#4178BE" stroke-width="3.7926" stroke-miterlimit="10" x1="-0.67" y1="34.851" x2="40.448" y2="34.851"/>
</g>
</svg>
