<?xml version="1.0" encoding="utf-8"?>
<!-- Generator: Adobe Illustrator 18.1.1, SVG Export Plug-In . SVG Version: 6.00 Build 0)  -->
<svg version="1.1" id="Layer_1" xmlns="http://www.w3.org/2000/svg" xmlns:xlink="http://www.w3.org/1999/xlink" x="0px" y="0px"
	 viewBox="79.9 237.5 182.3 142.6" enable-background="new 79.9 237.5 182.3 142.6" xml:space="preserve">
<g>
	<g>
		<g>
			<polygon fill="none" stroke="#94A3AB" stroke-miterlimit="10" points="140.8,379.3 80.4,361.7 80.4,238.1 140.8,255.8 			"/>
			<polygon fill="none" stroke="#94A3AB" stroke-miterlimit="10" points="261.7,379.3 201.3,361.7 201.3,238.1 261.7,255.8 			"/>
			<polygon fill="none" stroke="#94A3AB" stroke-miterlimit="10" points="201.3,361.7 140.8,379.3 140.8,255.8 201.3,238.1 			"/>
			<path fill="none" stroke="#DEE5EA" stroke-miterlimit="10" d="M201.3,276.7c23.8,0,29.5,29.5,29.5,29.5"/>
			<path fill="none" stroke="#DEE5EA" stroke-miterlimit="10" d="M110.6,302.5c0,0,4,40.1,30.2,40.1"/>
			<path fill="none" stroke="#DEE5EA" stroke-miterlimit="10" d="M140.8,342.6c12.1,0,20.8-14,29-29.1c9.6-17.6,18.6-36.8,31.4-36.8
				"/>
		</g>
		<path fill="#41D6C3" stroke="#FFFFFF" stroke-miterlimit="10" d="M197.9,276.8c-0.1-1.9,1.4-3.5,3.3-3.5l0,0l0,0l0,0
			c1.9-0.1,3.5,1.4,3.5,3.3l0,0c0.1,1.9-1.4,3.4-3.3,3.5h0c0,0-0.1,0-0.1,0l0,0C199.4,280.1,197.9,278.7,197.9,276.8z"/>
		<path fill="#41D6C3" stroke="#FFFFFF" stroke-miterlimit="10" d="M137.7,343.2c-0.1-1.9,1.4-3.5,3.3-3.5l0,0l0,0l0,0
			c1.9-0.1,3.5,1.4,3.5,3.3l0,0c0.1,1.9-1.4,3.4-3.3,3.5h0c0,0-0.1,0-0.1,0l0,0C139.3,346.5,137.8,345,137.7,343.2z"/>
		<path fill="#5AAAFA" stroke="#FFFFFF" stroke-miterlimit="5" stroke-dasharray="54.2292,4.6482" d="M165.2,309.9
			c-0.1-3.3,2.4-6,5.7-6.1l0,0l0,0l0,0c3.3-0.1,6,2.4,6.1,5.7l0,0c0.1,3.2-2.4,5.9-5.7,6.1h0c-0.1,0-0.1,0-0.2,0l0,0
			C167.9,315.5,165.3,313,165.2,309.9z"/>
		<polyline fill="none" stroke="#DEE5EA" stroke-miterlimit="10" points="225.1,303.5 230.8,306.2 233.6,301.2 		"/>
	</g>
	<path fill="#FFFFFF" stroke="#4178BE" stroke-miterlimit="10" d="M245.6,324.3c-0.5,0-1,0.1-1.5,0.1c0-0.3,0-0.6,0-0.9
		c0-6.6-5.3-11.9-11.9-11.9c-6.2,0-11.3,4.7-11.8,10.8c-1-0.3-2-0.5-3.1-0.5c-5.2,0-9.5,4.3-9.5,9.5c0,5.2,4.2,9.5,9.5,9.5
		c4.3,0,24.2,0,28.2,0c4.6,0,8.3-3.7,8.3-8.3C253.9,328,250.2,324.3,245.6,324.3z"/>
	<rect x="104.6" y="296.8" fill="#5AAAFA" stroke="#FFFFFF" stroke-miterlimit="10" width="11.3" height="11.3"/>
</g>
</svg>
