<?xml version="1.0" encoding="utf-8"?>
<!-- Generator: Adobe Illustrator 18.1.1, SVG Export Plug-In . SVG Version: 6.00 Build 0)  -->
<svg version="1.1" id="Layer_1" xmlns="http://www.w3.org/2000/svg" xmlns:xlink="http://www.w3.org/1999/xlink" x="0px" y="0px"
	 viewBox="0 0 320 480" enable-background="new 0 0 320 480" xml:space="preserve">
<g>
	<circle fill="none" stroke="#94A3AB" stroke-miterlimit="10" cx="160" cy="240" r="158.2"/>
	<circle fill="none" stroke="#94A3AB" stroke-miterlimit="10" cx="104.1" cy="248.8" r="6.7"/>
	<circle fill="none" stroke="#94A3AB" stroke-miterlimit="10" cx="36.6" cy="281.1" r="6.7"/>
	<path fill="none" stroke="#94A3AB" stroke-miterlimit="10" d="M159.3,186.9c112.5,0,140.3-20.7,140.3-20.7"/>
	<path fill="none" stroke="#94A3AB" stroke-miterlimit="10" d="M10.5,291.7c0,0,29.9,23.6,149.8,23.6"/>
	<circle fill="none" stroke="#94A3AB" stroke-miterlimit="10" cx="188.5" cy="207.6" r="6.7"/>
	<path fill="none" stroke="#94A3AB" stroke-miterlimit="10" d="M86.9,310.3c23.6,62.9,73.1,87.9,73.1,87.9"/>
	<path fill="none" stroke="#94A3AB" stroke-miterlimit="10" d="M160,81.8c0,0-85.5,43.6-85.5,158.2c0,9.8,0.7,19,1.8,27.4"/>
	<path fill="none" stroke="#94A3AB" stroke-miterlimit="10" d="M244.7,223.8c0.4,5.3,0.7,10.5,0.7,16.2
		c0,114.6-85.5,158.2-85.5,158.2"/>
	<path fill="none" stroke="#94A3AB" stroke-miterlimit="10" d="M160,81.8c0,0,55.6,28.5,77,99.5"/>
	<line fill="none" stroke="#94A3AB" stroke-miterlimit="10" x1="160.4" y1="81.4" x2="160.4" y2="230.5"/>
	<line fill="none" stroke="#94A3AB" stroke-miterlimit="10" x1="160.4" y1="272.4" x2="160.4" y2="397.9"/>
	<path fill="none" stroke="#94A3AB" stroke-miterlimit="10" d="M74.9,225.2c21.1,2.8,48.5,4.6,84.4,4.6
		c123.4,0,154.4-26.4,154.4-26.4"/>
	<path fill="none" stroke="#94A3AB" stroke-miterlimit="10" d="M2.1,248.4c0,0,46.4,24.6,158.2,24.6c33.8,0,61.2-2.1,83.3-5.3"/>
</g>
</svg>
