<?xml version="1.0" encoding="utf-8"?>
<!-- Generator: Adobe Illustrator 18.1.1, SVG Export Plug-In . SVG Version: 6.00 Build 0)  -->
<svg version="1.1" id="Layer_1" xmlns="http://www.w3.org/2000/svg" xmlns:xlink="http://www.w3.org/1999/xlink" x="0px" y="0px"
	 viewBox="0 180.3 320 119.3" enable-background="new 0 180.3 320 119.3" xml:space="preserve">
<g>
	<path fill="#FFFFFF" d="M309,294.1c0-3.1,2.4-5.5,5.5-5.5s5.5,2.4,5.5,5.5s-2.4,5.5-5.5,5.5S309,297.2,309,294.1L309,294.1z
		 M319.4,294.1c0-2.4-1.8-4.9-4.9-4.9c-2.4,0-4.9,1.8-4.9,4.9c0,2.4,1.8,4.9,4.9,4.9S319.4,296.6,319.4,294.1L319.4,294.1z
		 M317.6,297.2h-0.6l-1.8-3.1h-1.2v3.1h-0.6v-6.1h2.4c1.8,0,2.4,0.6,2.4,1.8c0,1.2-0.6,1.8-1.8,1.8L317.6,297.2L317.6,297.2z
		 M314.5,293.5c0.6,0,2.4,0,2.4-1.2s-0.6-1.2-1.8-1.2h-1.8v2.4L314.5,293.5L314.5,293.5z"/>
	<polygon fill="#FFFFFF" points="58.1,187.7 0,187.7 0,180.3 58.1,180.3 	"/>
	<polygon fill="#FFFFFF" points="58.1,203.6 0,203.6 0,196.3 58.1,196.3 	"/>
	<polygon fill="#FFFFFF" points="58.1,283.1 0,283.1 0,275.8 58.1,275.8 	"/>
	<polygon fill="#FFFFFF" points="41.6,267.2 16.5,267.2 16.5,259.9 41.6,259.9 	"/>
	<polygon fill="#FFFFFF" points="41.6,251.3 16.5,251.3 16.5,244 41.6,244 	"/>
	<polygon fill="#FFFFFF" points="41.6,235.4 16.5,235.4 16.5,228.1 41.6,228.1 	"/>
	<polygon fill="#FFFFFF" points="41.6,219.5 16.5,219.5 16.5,212.2 41.6,212.2 	"/>
	<polygon fill="#FFFFFF" points="58.1,299 0,299 0,291.7 58.1,291.7 	"/>
	<polygon fill="#FFFFFF" points="209.3,267.2 184.2,267.2 184.2,259.9 209.3,259.9 	"/>
	<polygon fill="#FFFFFF" points="222.1,267.2 246,267.2 248.4,259.9 219.7,259.9 	"/>
	<polygon fill="#FFFFFF" points="209.3,251.3 184.2,251.3 184.2,244 209.3,244 	"/>
	<polygon fill="#FFFFFF" points="216.6,251.3 251.5,251.3 253.9,244 214.1,244 	"/>
	<polygon fill="#FFFFFF" points="230.7,228.1 184.2,228.1 184.2,235.4 209.3,235.4 209.3,229.3 211.1,235.4 233.1,235.4 	"/>
	<polygon fill="#FFFFFF" points="237.4,228.1 235,235.4 257,235.4 258.8,229.3 258.8,235.4 283.9,235.4 283.9,228.1 	"/>
	<polygon fill="#FFFFFF" points="225.2,212.2 184.2,212.2 184.2,219.5 227.6,219.5 	"/>
	<polygon fill="#FFFFFF" points="283.9,267.2 258.8,267.2 258.8,259.9 283.9,259.9 	"/>
	<polygon fill="#FFFFFF" points="283.9,251.3 258.8,251.3 258.8,244 283.9,244 	"/>
	<polygon fill="#FFFFFF" points="242.9,212.2 240.5,219.5 283.9,219.5 283.9,212.2 	"/>
	<polygon fill="#FFFFFF" points="300.4,299 258.8,299 258.8,291.7 300.4,291.7 	"/>
	<polygon fill="#FFFFFF" points="209.3,299 167,299 167,291.7 209.3,291.7 	"/>
	<polygon fill="#FFFFFF" points="233.1,299 235,299 237.4,291.7 230.7,291.7 	"/>
	<polygon fill="#FFFFFF" points="300.4,283.1 258.8,283.1 258.8,275.8 300.4,275.8 	"/>
	<polygon fill="#FFFFFF" points="209.3,283.1 167,283.1 167,275.8 209.3,275.8 	"/>
	<polygon fill="#FFFFFF" points="227.6,283.1 240.5,283.1 242.9,275.8 225.2,275.8 	"/>
	<polygon fill="#FFFFFF" points="253.3,180.3 250.9,187.7 300.4,187.7 300.4,180.3 	"/>
	<polygon fill="#FFFFFF" points="214.1,180.3 167,180.3 167,187.7 216.6,187.7 	"/>
	<polygon fill="#FFFFFF" points="248.4,196.3 245.4,203.6 300.4,203.6 300.4,196.3 	"/>
	<polygon fill="#FFFFFF" points="219.7,196.3 167,196.3 167,203.6 222.1,203.6 	"/>
	<polygon fill="#FFFFFF" points="108.3,219.5 83.8,219.5 83.8,212.2 108.3,212.2 	"/>
	<polygon fill="#FFFFFF" points="108.3,267.2 83.8,267.2 83.8,259.9 108.3,259.9 	"/>
	<path fill="#FFFFFF" d="M66.7,187.7h82c-7.3-6.1-18.4-7.3-30-7.3h-2.4H66.7V187.7L66.7,187.7z"/>
	<path fill="#FFFFFF" d="M66.7,196.3h88.7c0.6,1.2,2.4,4.9,3.1,7.3H66.7V196.3L66.7,196.3z"/>
	<path fill="#FFFFFF" d="M83.8,244h63.6c2.4,1.2,5.5,4.9,7.3,7.3h-71V244L83.8,244z"/>
	<path fill="#FFFFFF" d="M133.4,212.2h26.3c0,2.4-0.6,5.5-1.2,7.3h-25.1L133.4,212.2L133.4,212.2z"/>
	<path fill="#FFFFFF" d="M133.4,259.9h25.1c0.6,1.8,1.2,4.3,1.2,7.3h-26.3V259.9L133.4,259.9z"/>
	<path fill="#FFFFFF" d="M66.7,275.8h92.4c-0.6,1.8-2.4,6.1-3.1,7.3H66.7V275.8L66.7,275.8z"/>
	<path fill="#FFFFFF" d="M66.7,291.7h82c-7.3,5.5-17.1,7.3-28.8,7.3h-3.7H66.7L66.7,291.7L66.7,291.7z"/>
	<path fill="#FFFFFF" d="M83.8,235.4h63.6c3.1-1.8,5.5-4.3,7.3-7.3h-71V235.4L83.8,235.4z"/>
</g>
</svg>
